<mxfile host="app.diagrams.net" modified="2023-08-21T14:18:22.380Z" agent="Mozilla/5.0 (Windows NT 10.0; Win64; x64) AppleWebKit/537.36 (KHTML, like Gecko) Chrome/115.0.0.0 Safari/537.36" etag="02mnm-nR_dn8CJ_VXFjw" version="21.6.8" type="github">
  <diagram name="Page-1" id="xaAILmkf2uPLHFXizpcq">
    <mxGraphModel dx="880" dy="438" grid="1" gridSize="10" guides="1" tooltips="1" connect="1" arrows="1" fold="1" page="1" pageScale="1" pageWidth="850" pageHeight="1100" math="0" shadow="0">
      <root>
        <mxCell id="0" />
        <mxCell id="1" parent="0" />
        <mxCell id="HAkkI4DR5xC4AYg-inpe-1" value="Lp&lt;br&gt;(table-&amp;nbsp;Logistics_Providers)" style="rounded=0;whiteSpace=wrap;html=1;" vertex="1" parent="1">
          <mxGeometry x="270" y="10" width="120" height="60" as="geometry" />
        </mxCell>
        <mxCell id="HAkkI4DR5xC4AYg-inpe-2" value="LP Fleet type 1&lt;br&gt;(table-Logistics_Provider_Fleets)" style="rounded=0;whiteSpace=wrap;html=1;" vertex="1" parent="1">
          <mxGeometry x="70" y="140" width="120" height="60" as="geometry" />
        </mxCell>
        <mxCell id="HAkkI4DR5xC4AYg-inpe-3" value="LP Fleet type 2&lt;br&gt;(table-Logistics_Provider_Fleets)" style="rounded=0;whiteSpace=wrap;html=1;" vertex="1" parent="1">
          <mxGeometry x="270" y="140" width="120" height="60" as="geometry" />
        </mxCell>
        <mxCell id="HAkkI4DR5xC4AYg-inpe-4" value="LP Fleet type 3&lt;br&gt;(table-Logistics_Provider_Fleets)" style="rounded=0;whiteSpace=wrap;html=1;" vertex="1" parent="1">
          <mxGeometry x="470" y="140" width="120" height="60" as="geometry" />
        </mxCell>
        <mxCell id="HAkkI4DR5xC4AYg-inpe-8" value="" style="endArrow=classic;html=1;rounded=0;entryX=0.5;entryY=0;entryDx=0;entryDy=0;exitX=0.5;exitY=1;exitDx=0;exitDy=0;" edge="1" parent="1" source="HAkkI4DR5xC4AYg-inpe-1" target="HAkkI4DR5xC4AYg-inpe-2">
          <mxGeometry width="50" height="50" relative="1" as="geometry">
            <mxPoint x="400" y="260" as="sourcePoint" />
            <mxPoint x="450" y="210" as="targetPoint" />
          </mxGeometry>
        </mxCell>
        <mxCell id="HAkkI4DR5xC4AYg-inpe-9" value="" style="endArrow=classic;html=1;rounded=0;entryX=0.5;entryY=0;entryDx=0;entryDy=0;" edge="1" parent="1" target="HAkkI4DR5xC4AYg-inpe-3">
          <mxGeometry width="50" height="50" relative="1" as="geometry">
            <mxPoint x="330" y="70" as="sourcePoint" />
            <mxPoint x="450" y="210" as="targetPoint" />
          </mxGeometry>
        </mxCell>
        <mxCell id="HAkkI4DR5xC4AYg-inpe-10" value="" style="endArrow=classic;html=1;rounded=0;entryX=0.5;entryY=0;entryDx=0;entryDy=0;exitX=0.5;exitY=1;exitDx=0;exitDy=0;" edge="1" parent="1" source="HAkkI4DR5xC4AYg-inpe-1" target="HAkkI4DR5xC4AYg-inpe-4">
          <mxGeometry width="50" height="50" relative="1" as="geometry">
            <mxPoint x="400" y="260" as="sourcePoint" />
            <mxPoint x="450" y="210" as="targetPoint" />
          </mxGeometry>
        </mxCell>
        <mxCell id="HAkkI4DR5xC4AYg-inpe-11" value="Vehicle details(multiple via csv)&amp;nbsp;&lt;br&gt;(table- vehicle_Details)" style="rounded=0;whiteSpace=wrap;html=1;" vertex="1" parent="1">
          <mxGeometry x="140" y="320" width="170" height="60" as="geometry" />
        </mxCell>
        <mxCell id="HAkkI4DR5xC4AYg-inpe-12" value="" style="endArrow=classic;html=1;rounded=0;exitX=0.5;exitY=1;exitDx=0;exitDy=0;entryX=0.5;entryY=0;entryDx=0;entryDy=0;" edge="1" parent="1" source="HAkkI4DR5xC4AYg-inpe-3" target="HAkkI4DR5xC4AYg-inpe-11">
          <mxGeometry width="50" height="50" relative="1" as="geometry">
            <mxPoint x="400" y="260" as="sourcePoint" />
            <mxPoint x="450" y="210" as="targetPoint" />
          </mxGeometry>
        </mxCell>
        <mxCell id="HAkkI4DR5xC4AYg-inpe-13" value="Driver details(multiple via csv)&lt;br&gt;(table- driver _details)" style="rounded=0;whiteSpace=wrap;html=1;" vertex="1" parent="1">
          <mxGeometry x="350" y="320" width="180" height="60" as="geometry" />
        </mxCell>
        <mxCell id="HAkkI4DR5xC4AYg-inpe-14" value="" style="endArrow=classic;html=1;rounded=0;entryX=0.5;entryY=0;entryDx=0;entryDy=0;" edge="1" parent="1" target="HAkkI4DR5xC4AYg-inpe-13">
          <mxGeometry width="50" height="50" relative="1" as="geometry">
            <mxPoint x="330" y="200" as="sourcePoint" />
            <mxPoint x="450" y="210" as="targetPoint" />
          </mxGeometry>
        </mxCell>
        <mxCell id="HAkkI4DR5xC4AYg-inpe-15" value="table-&amp;nbsp;Vehicle_Driver_Mappings" style="rounded=0;whiteSpace=wrap;html=1;" vertex="1" parent="1">
          <mxGeometry x="200" y="480" width="260" height="60" as="geometry" />
        </mxCell>
        <mxCell id="HAkkI4DR5xC4AYg-inpe-16" value="" style="endArrow=classic;html=1;rounded=0;exitX=0.5;exitY=1;exitDx=0;exitDy=0;entryX=0.5;entryY=0;entryDx=0;entryDy=0;" edge="1" parent="1" source="HAkkI4DR5xC4AYg-inpe-11" target="HAkkI4DR5xC4AYg-inpe-15">
          <mxGeometry width="50" height="50" relative="1" as="geometry">
            <mxPoint x="400" y="360" as="sourcePoint" />
            <mxPoint x="450" y="310" as="targetPoint" />
          </mxGeometry>
        </mxCell>
        <mxCell id="HAkkI4DR5xC4AYg-inpe-17" value="" style="endArrow=classic;html=1;rounded=0;entryX=0.5;entryY=0;entryDx=0;entryDy=0;exitX=0.5;exitY=1;exitDx=0;exitDy=0;" edge="1" parent="1" source="HAkkI4DR5xC4AYg-inpe-13" target="HAkkI4DR5xC4AYg-inpe-15">
          <mxGeometry width="50" height="50" relative="1" as="geometry">
            <mxPoint x="400" y="360" as="sourcePoint" />
            <mxPoint x="450" y="310" as="targetPoint" />
          </mxGeometry>
        </mxCell>
        <mxCell id="HAkkI4DR5xC4AYg-inpe-18" value="fleet-vehicle mapping" style="rounded=1;whiteSpace=wrap;html=1;" vertex="1" parent="1">
          <mxGeometry x="180" y="240" width="140" height="20" as="geometry" />
        </mxCell>
        <mxCell id="HAkkI4DR5xC4AYg-inpe-19" value="fleet-driver mapping" style="rounded=1;whiteSpace=wrap;html=1;" vertex="1" parent="1">
          <mxGeometry x="330" y="240" width="140" height="20" as="geometry" />
        </mxCell>
      </root>
    </mxGraphModel>
  </diagram>
</mxfile>
